<mxfile host="app.diagrams.net" modified="2023-11-23T04:22:34.462Z" agent="Mozilla/5.0 (Windows NT 10.0; Win64; x64) AppleWebKit/537.36 (KHTML, like Gecko) Chrome/119.0.0.0 Safari/537.36" etag="2mkxOWKLBsP_siVWw22S" version="22.1.3" type="github">
  <diagram name="第 1 页" id="8b1W_u7MKCnpR5mQdaVe">
    <mxGraphModel dx="2417" dy="885" grid="1" gridSize="10" guides="1" tooltips="1" connect="1" arrows="1" fold="1" page="1" pageScale="1" pageWidth="827" pageHeight="1169" background="none" math="0" shadow="0">
      <root>
        <mxCell id="0" />
        <mxCell id="1" parent="0" />
        <mxCell id="9E7aflRJHXOKluM3we5V-30" value="" style="ellipse;shape=cloud;whiteSpace=wrap;html=1;sketch=1;curveFitting=1;jiggle=2;fontColor=#000000;fontSize=22;" vertex="1" parent="1">
          <mxGeometry x="-470" y="100" width="1170" height="820" as="geometry" />
        </mxCell>
        <mxCell id="9E7aflRJHXOKluM3we5V-31" value="" style="ellipse;shape=cloud;whiteSpace=wrap;html=1;fontColor=#000000;" vertex="1" parent="1">
          <mxGeometry x="250" y="200" width="640" height="480" as="geometry" />
        </mxCell>
        <mxCell id="9E7aflRJHXOKluM3we5V-18" value="dataNode-group3-1" style="rounded=1;whiteSpace=wrap;html=1;sketch=1;curveFitting=1;jiggle=2;fontSize=18;fillColor=#ffe6cc;strokeColor=#d79b00;" vertex="1" parent="1">
          <mxGeometry x="188" y="610" width="130" height="40" as="geometry" />
        </mxCell>
        <mxCell id="9E7aflRJHXOKluM3we5V-19" value="dataNode-group3-2" style="rounded=1;whiteSpace=wrap;html=1;sketch=1;curveFitting=1;jiggle=2;fontSize=18;fillColor=#ffe6cc;strokeColor=#d79b00;" vertex="1" parent="1">
          <mxGeometry x="189" y="653" width="130" height="40" as="geometry" />
        </mxCell>
        <mxCell id="9E7aflRJHXOKluM3we5V-20" value="dataNode-group3-3" style="rounded=1;whiteSpace=wrap;html=1;sketch=1;curveFitting=1;jiggle=2;fontSize=18;fillColor=#ffe6cc;strokeColor=#d79b00;" vertex="1" parent="1">
          <mxGeometry x="190" y="696" width="130" height="40" as="geometry" />
        </mxCell>
        <mxCell id="9E7aflRJHXOKluM3we5V-15" value="dataNode-group2-1" style="rounded=1;whiteSpace=wrap;html=1;sketch=1;curveFitting=1;jiggle=2;fontSize=18;fillColor=#ffe6cc;strokeColor=#d79b00;" vertex="1" parent="1">
          <mxGeometry x="65" y="618" width="130" height="40" as="geometry" />
        </mxCell>
        <mxCell id="9E7aflRJHXOKluM3we5V-16" value="dataNode-group2-2" style="rounded=1;whiteSpace=wrap;html=1;sketch=1;curveFitting=1;jiggle=2;fontSize=18;fillColor=#ffe6cc;strokeColor=#d79b00;" vertex="1" parent="1">
          <mxGeometry x="66" y="661" width="130" height="40" as="geometry" />
        </mxCell>
        <mxCell id="9E7aflRJHXOKluM3we5V-17" value="dataNode-group3-3" style="rounded=1;whiteSpace=wrap;html=1;sketch=1;curveFitting=1;jiggle=2;fontSize=18;fillColor=#ffe6cc;strokeColor=#d79b00;" vertex="1" parent="1">
          <mxGeometry x="67" y="704" width="130" height="40" as="geometry" />
        </mxCell>
        <mxCell id="9E7aflRJHXOKluM3we5V-3" value="&lt;font style=&quot;font-size: 24px;&quot;&gt;sheefs网络&lt;/font&gt;" style="text;html=1;strokeColor=none;fillColor=none;align=center;verticalAlign=middle;whiteSpace=wrap;rounded=0;sketch=1;curveFitting=1;jiggle=2;" vertex="1" parent="1">
          <mxGeometry x="36" y="280" width="190" height="30" as="geometry" />
        </mxCell>
        <mxCell id="9E7aflRJHXOKluM3we5V-5" value="master1" style="rounded=1;whiteSpace=wrap;html=1;sketch=1;curveFitting=1;jiggle=2;fillColor=#d80073;fontColor=#000000;strokeColor=#A50040;fontSize=22;" vertex="1" parent="1">
          <mxGeometry x="50" y="390" width="100" height="40" as="geometry" />
        </mxCell>
        <mxCell id="9E7aflRJHXOKluM3we5V-6" value="master2" style="rounded=1;whiteSpace=wrap;html=1;sketch=1;curveFitting=1;jiggle=2;fillColor=#d80073;fontColor=#000000;strokeColor=#A50040;fontSize=22;" vertex="1" parent="1">
          <mxGeometry x="50" y="445" width="100" height="45" as="geometry" />
        </mxCell>
        <mxCell id="9E7aflRJHXOKluM3we5V-8" value="master3" style="rounded=1;whiteSpace=wrap;html=1;sketch=1;curveFitting=1;jiggle=2;fillColor=#d80073;fontColor=#000000;strokeColor=#A50040;fontSize=22;" vertex="1" parent="1">
          <mxGeometry x="50" y="505" width="100" height="40" as="geometry" />
        </mxCell>
        <mxCell id="9E7aflRJHXOKluM3we5V-9" value="dataNode-group1-1" style="rounded=1;whiteSpace=wrap;html=1;sketch=1;curveFitting=1;jiggle=2;fontSize=18;fillColor=#ffe6cc;strokeColor=#d79b00;" vertex="1" parent="1">
          <mxGeometry x="-60" y="633" width="130" height="40" as="geometry" />
        </mxCell>
        <mxCell id="9E7aflRJHXOKluM3we5V-10" value="dataNode-group1-2" style="rounded=1;whiteSpace=wrap;html=1;sketch=1;curveFitting=1;jiggle=2;fontSize=18;fillColor=#ffe6cc;strokeColor=#d79b00;" vertex="1" parent="1">
          <mxGeometry x="-59" y="676" width="130" height="40" as="geometry" />
        </mxCell>
        <mxCell id="9E7aflRJHXOKluM3we5V-11" value="dataNode-group1-3" style="rounded=1;whiteSpace=wrap;html=1;sketch=1;curveFitting=1;jiggle=2;fontSize=18;fillColor=#ffe6cc;strokeColor=#d79b00;" vertex="1" parent="1">
          <mxGeometry x="-58" y="719" width="130" height="40" as="geometry" />
        </mxCell>
        <mxCell id="9E7aflRJHXOKluM3we5V-21" value="Zoo1" style="rounded=1;whiteSpace=wrap;html=1;sketch=1;curveFitting=1;jiggle=2;fontSize=18;fillColor=#d5e8d4;strokeColor=#82b366;" vertex="1" parent="1">
          <mxGeometry x="-220" y="413" width="120" height="60" as="geometry" />
        </mxCell>
        <mxCell id="9E7aflRJHXOKluM3we5V-22" value="Zoo2" style="rounded=1;whiteSpace=wrap;html=1;sketch=1;curveFitting=1;jiggle=2;fontSize=18;fillColor=#d5e8d4;strokeColor=#82b366;" vertex="1" parent="1">
          <mxGeometry x="-220" y="488" width="120" height="60" as="geometry" />
        </mxCell>
        <mxCell id="9E7aflRJHXOKluM3we5V-23" value="Zoo3" style="rounded=1;whiteSpace=wrap;html=1;sketch=1;curveFitting=1;jiggle=2;fontSize=18;fillColor=#d5e8d4;strokeColor=#82b366;" vertex="1" parent="1">
          <mxGeometry x="-220" y="558" width="120" height="60" as="geometry" />
        </mxCell>
        <mxCell id="9E7aflRJHXOKluM3we5V-25" value="Kafka" style="shape=datastore;whiteSpace=wrap;html=1;sketch=1;curveFitting=1;jiggle=2;fillColor=#1ba1e2;fontColor=#000000;strokeColor=#006EAF;fontSize=17;" vertex="1" parent="1">
          <mxGeometry x="-60" y="255" width="60" height="60" as="geometry" />
        </mxCell>
        <mxCell id="9E7aflRJHXOKluM3we5V-27" value="MongoDB" style="shape=datastore;whiteSpace=wrap;html=1;sketch=1;curveFitting=1;jiggle=2;fillColor=#6d8764;fontColor=#000000;strokeColor=#3A5431;fontSize=20;" vertex="1" parent="1">
          <mxGeometry x="670" y="413" width="90" height="87" as="geometry" />
        </mxCell>
        <mxCell id="9E7aflRJHXOKluM3we5V-28" value="&lt;font style=&quot;font-size: 20px;&quot;&gt;gdock_backend&lt;/font&gt;" style="rounded=1;whiteSpace=wrap;html=1;absoluteArcSize=1;arcSize=14;strokeWidth=2;sketch=1;curveFitting=1;jiggle=2;shadow=1;fillColor=#f8cecc;strokeColor=#b85450;" vertex="1" parent="1">
          <mxGeometry x="400" y="388" width="200" height="85" as="geometry" />
        </mxCell>
        <mxCell id="9E7aflRJHXOKluM3we5V-32" value="&lt;font style=&quot;font-size: 21px;&quot;&gt;backend网络&lt;/font&gt;" style="text;html=1;strokeColor=none;fillColor=none;align=center;verticalAlign=middle;whiteSpace=wrap;rounded=0;sketch=1;curveFitting=1;jiggle=2;" vertex="1" parent="1">
          <mxGeometry x="580" y="340" width="140" height="30" as="geometry" />
        </mxCell>
      </root>
    </mxGraphModel>
  </diagram>
</mxfile>
